<svg height="50" width="50" version="1.1" id="Capa_1" xmlns="http://www.w3.org/2000/svg" xmlns:xlink="http://www.w3.org/1999/xlink" x="0px" y="0px"
	 viewBox="0 0 300.004 300.004" style="enable-background:new 0 0 300.004 300.004;" xml:space="preserve">
	<path d="M278.891,244.965V105.231c0-4.143-3.357-7.5-7.5-7.5h-42.398V65.597c0-4.143-3.357-7.5-7.5-7.5H189.17V47.555
		c0-21.6-17.57-39.173-39.168-39.173s-39.168,17.573-39.168,39.173v10.542H78.512c-4.143,0-7.5,3.357-7.5,7.5v32.134H28.613
		c-4.142,0-7.5,3.357-7.5,7.5v139.734C9.438,245.174,0,254.721,0,266.446v3.676c0,11.855,9.645,21.5,21.5,21.5h257.004
		c11.855,0,21.5-9.645,21.5-21.5v-3.676C300.004,254.721,290.566,245.174,278.891,244.965z M78.512,216.954h142.98
		c4.143,0,7.5-3.357,7.5-7.5v-71.111h11.411v105.075H59.602V138.342h11.41v71.111C71.012,213.596,74.369,216.954,78.512,216.954z
		 M263.891,112.731v130.687h-8.487V130.842c0-4.143-3.357-7.5-7.5-7.5h-18.911v-10.611H263.891z M125.834,47.555
		c0-13.329,10.842-24.173,24.168-24.173s24.168,10.844,24.168,24.173v10.542h-48.336V47.555z M86.012,73.097h24.822V85.94
		c0,4.143,3.357,7.5,7.5,7.5c4.143,0,7.5-3.357,7.5-7.5V73.097h48.336V85.94c0,4.143,3.357,7.5,7.5,7.5c4.143,0,7.5-3.357,7.5-7.5
		V73.097h24.822v128.856H86.012V73.097z M36.113,112.731h34.899v10.611h-18.91c-4.143,0-7.5,3.357-7.5,7.5v112.575h-8.488V112.731z
		 M285.004,270.122c0,3.584-2.916,6.5-6.5,6.5H21.5c-3.584,0-6.5-2.916-6.5-6.5v-3.676c0-3.584,2.916-6.5,6.5-6.5h257.004
		c3.584,0,6.5,2.916,6.5,6.5V270.122z"/>
</svg>